<?xml version="1.0" encoding="utf-8"?>
<!-- Generator: Adobe Illustrator 25.0.0, SVG Export Plug-In . SVG Version: 6.00 Build 0)  -->
<svg version="1.1" id="Layer_1" xmlns="http://www.w3.org/2000/svg" xmlns:xlink="http://www.w3.org/1999/xlink" x="0px" y="0px"
	 viewBox="0 0 164.41 62.51" style="enable-background:new 0 0 164.41 62.51;" xml:space="preserve">
<style type="text/css">
	.st0{clip-path:url(#SVGID_2_);}
	.st1{fill:#003047;}
	.st2{fill:#FFFFFF;}
	.st3{fill:#D9E9F0;}
	.st4{fill:#DC1F26;}
	.st5{clip-path:url(#SVGID_2_);fill:#004E67;}
	.st6{clip-path:url(#SVGID_2_);fill:#003047;}
	.st7{clip-path:url(#SVGID_2_);fill:#DC1F26;}
</style>
<g>
	<defs>
		<rect id="SVGID_1_" x="-0.14" y="-9" width="164.68" height="254.82"/>
	</defs>
	<clipPath id="SVGID_2_">
		<use xlink:href="#SVGID_1_"  style="overflow:visible;"/>
	</clipPath>
	<g class="st0">
		<g>
			
				<rect x="-0.7" y="-123.57" transform="matrix(0.7071 0.7071 -0.7071 0.7071 -19.9534 -63.7087)" class="st1" width="135.25" height="135.25"/>
			
				<rect x="8.34" y="-114.53" transform="matrix(0.7071 0.7071 -0.7071 0.7071 -19.9535 -63.7087)" class="st2" width="117.18" height="117.18"/>
		</g>
		
			<rect x="-45.31" y="-97.5" transform="matrix(0.7071 0.7071 -0.7071 0.7071 -16.8381 -23.5952)" class="st3" width="130.75" height="130.75"/>
		
			<rect x="19.56" y="-93.69" transform="matrix(0.7071 0.7071 -0.7071 0.7071 -13.1538 -60.8922)" class="st4" width="94.73" height="94.73"/>
		
			<rect x="124.83" y="-29.18" transform="matrix(0.7071 0.7071 -0.7071 0.7071 49.4186 -113.1217)" class="st3" width="72.86" height="64.55"/>
		
			<rect x="128.33" y="-33.25" transform="matrix(0.7071 0.7071 -0.7071 0.7071 47.1752 -115.829)" class="st4" width="70.15" height="64.55"/>
		
			<rect x="141.29" y="-23.08" transform="matrix(0.7071 0.7071 -0.7071 0.7071 57.3387 -120.0388)" class="st4" width="64.55" height="64.55"/>
	</g>
	
		<rect x="-47.1" y="-108.62" transform="matrix(0.7071 0.7071 -0.7071 0.7071 -23.4369 -26.3285)" class="st5" width="134.32" height="134.32"/>
	
		<rect x="-44.9" y="-106.41" transform="matrix(0.7071 0.7071 -0.7071 0.7071 -23.4369 -26.3285)" class="st6" width="129.92" height="129.92"/>
	
		<rect x="9.78" y="-105.42" transform="matrix(0.7071 0.7071 -0.7071 0.7071 -32.8362 -53.8833)" class="st5" width="77.69" height="77.69"/>
	
		<rect x="32.18" y="-103.47" transform="matrix(0.7071 0.7071 -0.7071 0.7071 -24.899 -69.1501)" class="st7" width="77.69" height="77.69"/>
</g>
</svg>
